# xmcd CD database file
#
# Track frame offsets:
#	150
#	13309
#	27979
#	42539
#	58130
#	71585
#	84129
#	100462
#	116441
#	131591
#	145930
#	159274
#	172053
#	186460
#
# Disc length: 2672 seconds
#
# Revision: 4
# Processed by: cddbd v1.5.2PL0 Copyright (c) Steve Scherf et al.
# Submitted via: CDex 1.50Beta7
#
DISCID=c80a6e0e
DTITLE=Truck Stop  - Der wilde, wilde Westen
DYEAR=1993
DGENRE=Country
TTITLE0=Die Frau mit dedm Gurt
TTITLE1=Ein Tag wie ein Freund 
TTITLE2=Louisiana Ladies
TTITLE3=Jeden Tag in einer anderen Stadt 
TTITLE4=Take it Easy, altes Haus 
TTITLE5=Der wilde, wilde Westen 
TTITLE6=Old Texas Town, die Western-Stadt
TTITLE7=Ich Möcht' so gern Dave Dudley hör'n
TTITLE8=Trucker bleibt Trucker 
TTITLE9=Die Lady und der Tramp 
TTITLE10=Arizona, Arizona 
TTITLE11=Laß' doch mal den Cowboy ran
TTITLE12=Der König von der Autobahn 
TTITLE13=Hallo Freunde 
EXTD=YEAR: 1993
EXTT0=
EXTT1=
EXTT2=
EXTT3=
EXTT4=
EXTT5=
EXTT6=
EXTT7=
EXTT8=
EXTT9=
EXTT10=
EXTT11=
EXTT12=
EXTT13=
PLAYORDER=
